<svg aria-hidden="true" style="position:absolute;width:0;height:0"
    xmlns="http://www.w3.org/2000/svg" overflow="hidden">
    <defs>
        <symbol id="icon-white_arrow_button" viewBox="0 0 26 32">
            <path fill="none" stroke="var(--color1, #fff)" stroke-linejoin="round" stroke-linecap="round" stroke-width="6.4" d="M5.172 3.2L19.341 16 5.172 28.8"/>
        </symbol>
        <symbol id="icon-red_arrow_button" viewBox="0 0 26 32">
            <path fill="none" stroke="var(--color2, #d41443)" stroke-linejoin="round" stroke-linecap="round" stroke-width="6.4" d="M5.172 3.2L19.341 16 5.172 28.8"/>
        </symbol>
        <symbol id="red_arrow_button" viewBox="0 0 26 32">
            <path stroke-linejoin="round" stroke-linecap="round" stroke-width="6.4" d="M5.172 3.2L19.341 16 5.172 28.8"/>
        </symbol>
        <symbol id="icon-comma_reviews" viewBox="0 0 43 32">
            <path fill="var(--color3, #e1e1e1)" d="M32.014 0c1.928 0 3.75.52 5.464 1.561s3.107 2.537 4.178 4.488c1.029 1.951 1.543 4.25 1.543 6.894s-.643 5.225-1.928 7.74c-.429.91-1.2 2.081-2.315 3.512a63.65 63.65 0 01-3.214 3.707L31.692 32l-2.893-4.813a22.225 22.225 0 005.306-4.646l.03-.037c1.542-1.821 2.314-3.49 2.314-5.008 0-.781-.171-1.41-.514-1.886a8.361 8.361 0 01-5.014 1.626c-1.328 0-2.593-.412-3.793-1.236a8.638 8.638 0 01-2.935-3.078l-.022-.043c-.771-1.258-1.157-2.558-1.157-3.902 0-1.518.45-2.97 1.35-4.358a10.313 10.313 0 013.364-3.356l.044-.025C29.142.414 30.556.002 32.014.002zM8.936 0c1.928 0 3.75.52 5.464 1.561s3.107 2.536 4.178 4.488c1.029 1.951 1.543 4.25 1.543 6.894 0 1.864-.236 3.534-.707 5.008-.472 1.518-1.286 3.1-2.443 4.748-1.114 1.561-2.164 2.862-3.15 3.902-.986 1.084-2.7 2.883-5.143 5.398l-2.893-4.813a22.225 22.225 0 005.306-4.646l.03-.037c1.542-1.821 2.314-3.49 2.314-5.008 0-.781-.172-1.41-.514-1.886a8.361 8.361 0 01-5.014 1.626c-1.328 0-2.593-.412-3.793-1.236a8.638 8.638 0 01-2.935-3.078l-.022-.043C.386 11.62 0 10.32 0 8.976c0-1.518.429-2.97 1.286-4.358A10.313 10.313 0 014.65 1.262l.045-.025C6.065.413 7.479.001 8.937.001z"/>
        </symbol>
        <symbol id="icon-facebook" viewBox="0 0 32 32">
            <path fill="var(--color4, #fea5bb)" d="M16 32c8.837 0 16-7.163 16-16S24.837 0 16 0 0 7.163 0 16s7.163 16 16 16z"/>
            <path fill="var(--color1, #fff)" d="M20.446 15.981h-2.611V25.6H13.88v-9.619H12v-3.379h1.88v-2.187c0-1.564.739-4.014 3.991-4.014l2.929.012v3.281h-2.125c-.348 0-.839.176-.839.922v1.989h2.955l-.345 3.377z"/>
        </symbol>
        <symbol id="icon-github" viewBox="0 0 32 32">
            <path fill="var(--color4, #fea5bb)" d="M32 16c0 8.837-7.163 16-16 16S0 24.837 0 16 7.163 0 16 0s16 7.163 16 16z"/>
            <path fill="var(--color1, #fff)" d="M16 6.588c-5.17 0-9.412 4.242-9.412 9.412 0 4.411 3.096 8.419 7.206 9.412v-3.113a2.314 2.314 0 01-1.196-.031c-.556-.164-1.008-.535-1.344-1.099-.214-.36-.593-.753-.988-.724l-.097-1.098c.856-.073 1.594.521 2.033 1.258.196.328.421.52.709.605.278.083.577.043.925-.08.088-.697.408-.958.649-1.327-2.452-.365-3.429-1.666-3.816-2.692-.514-1.364-.238-3.066.67-4.143.018-.021.05-.075.038-.113-.417-1.259.09-2.3.109-2.41.481.141.559-.143 2.089.786l.264.159c.111.066.075.028.186.019a7.787 7.787 0 011.97-.276h.006a8.021 8.021 0 012.002.284l.086.009c-.008-.002.024-.006.075-.037 1.911-1.158 1.842-.779 2.355-.946.019.111.519 1.169.106 2.411-.056.171 1.656 1.739.708 4.256-.388 1.026-1.365 2.328-3.816 2.693.314.48.692.734.69 1.722v3.886c4.109-.993 7.206-5 7.206-9.412 0-5.17-4.242-9.412-9.412-9.412z"/>
        </symbol>
        <symbol id="icon-glass_fruit" viewBox="0 0 32 32">
            <path d="M0 0h32v32H0z"/>
        </symbol>
        <symbol id="icon-glass_milk" viewBox="0 0 21 32">
            <path d="M0 0h21.12v32H0z"/>
        </symbol>
        <symbol id="icon-gray_circle_reviews" viewBox="0 0 32 32">
            <path fill="var(--color5, #d9d9d9)" d="M32 16c0 8.837-7.163 16-16 16S0 24.837 0 16 7.163 0 16 0s16 7.163 16 16z"/>
        </symbol>
        <symbol id="icon-ice_cream" viewBox="0 0 28 32">
            <path d="M0 0h28.16v32H0z"/>
        </symbol>
        <symbol id="icon-red_arrow_header" viewBox="0 0 32 32">
            <path d="M0 0h32v32H0z"/>
        </symbol>
        <symbol id="icon-red_arrow_header_descktop" viewBox="0 0 32 32">
            <path d="M0 0h32v32H0z"/>
        </symbol>
        <symbol id="icon-red_arrow_products" viewBox="0 0 32 32">
            <path d="M0 0h32v32H0z"/>
        </symbol>
        <symbol id="icon-red_dots_reviews" viewBox="0 0 256 32">
            <path fill="var(--color6, #c7133e)" d="M144 16c0 8.837-7.163 16-16 16s-16-7.163-16-16 7.163-16 16-16 16 7.163 16 16zM32 16c0 8.837-7.163 16-16 16S0 24.837 0 16 7.163 0 16 0s16 7.163 16 16zm224 0c0 8.837-7.163 16-16 16s-16-7.163-16-16 7.163-16 16-16 16 7.163 16 16z"/>
        </symbol>
        <symbol id="icon-red_house_reviews" viewBox="0 0 35 32">
            <path fill="var(--color7, #d31342)" d="M34.253 15.613a1.571 1.571 0 00-.129-2.254l-.002-.002L19.349.432A1.828 1.828 0 0018.165 0c-.467 0-.893.174-1.217.46l.002-.002L2.129 14.047a1.564 1.564 0 00-.071 2.251l.373.387c.613.64 1.611.72 2.224.171l1.107-.992v14.523c0 .893.72 1.613 1.613 1.613h5.773c.891 0 1.613-.72 1.613-1.613v-10.16h7.373v10.16c-.013.891.624 1.613 1.515 1.613h6.123a1.61 1.61 0 001.611-1.613v-14.32l.685.603c.376.331 1.168.064 1.765-.595l.421-.461z"/>
        </symbol>
        <symbol id="icon-telegram" viewBox="0 0 32 32">
            <path fill="var(--color4, #fea5bb)" d="M32 16c0 8.837-7.163 16-16 16S0 24.837 0 16 7.163 0 16 0s16 7.163 16 16z"/>
            <path fill="var(--color1, #fff)" d="M12.867 18.376l-.317 4.169c.455 0 .651-.183.888-.401l2.13-1.901 4.414 3.018c.809.421 1.381.199 1.6-.696l2.897-12.673c.258-1.117-.433-1.554-1.221-1.28L6.226 14.698c-1.162.422-1.145 1.026-.198 1.301l4.355 1.264 10.114-5.907c.476-.295.909-.132.553.163l-8.182 6.856z"/>
        </symbol>
        <symbol id="icon-white_dots_products" viewBox="0 0 139 32">
            <path fill="var(--color1, #fff)" d="M85.333 16c0 8.837-7.163 16-16 16s-16-7.163-16-16 7.163-16 16-16 16 7.163 16 16zM32 16c0 8.837-7.163 16-16 16S0 24.837 0 16 7.163 0 16 0s16 7.163 16 16zm106.667 0c0 8.837-7.163 16-16 16s-16-7.163-16-16 7.163-16 16-16 16 7.163 16 16z"/>
        </symbol>
        <symbol id="icon-modal-person" viewBox="0 0 32 32">
            <path d="M16 16a5.333 5.333 0 100-10.666A5.333 5.333 0 1016 16zm0 2.667c-3.561 0-10.667 1.787-10.667 5.333v1.333c0 .732.599 1.333 1.333 1.333h18.667c.732 0 1.333-.601 1.333-1.333V24c0-3.547-7.108-5.333-10.667-5.333z"/>
        </symbol>
        <symbol id="icon-modal-phone" viewBox="0 0 32 32">
            <path d="M24.882 19.774l-3.268-.373a2.552 2.552 0 00-2.11.732l-2.368 2.368c-3.669-1.894-6.585-4.81-8.427-8.372l-.051-.108 2.382-2.377a2.552 2.552 0 00.731-2.122l.001.012-.373-3.243a2.578 2.578 0 00-2.557-2.276H6.613c-1.454 0-2.663 1.209-2.574 2.661.683 10.987 9.47 19.762 20.444 20.444 1.452.089 2.663-1.12 2.663-2.574v-2.238a2.549 2.549 0 00-2.253-2.532l-.012-.001z"/>
        </symbol>
        <symbol id="icon-modal-checkbox" viewBox="0 0 34 32">
            <path fill="var(--color1, #fff)" stroke="var(--color1, #fff)" stroke-width=".427" d="M8.442 16.537l-.147-.14-2.205 2.088 7.767 7.41 16.318-15.567-2.19-2.089-14.128 13.465-5.416-5.167z"/>
        </symbol>
        <symbol id="icon-close-black" viewBox="0 0 32 32">
            <path d="M26.667 7.303l-1.97-1.97-7.808 7.808-7.808-7.808-1.97 1.97 7.808 7.808-7.808 7.808 1.97 1.97 7.808-7.808 7.808 7.808 1.97-1.97-7.808-7.808 7.808-7.808z"/>
        </symbol>
        <symbol id="icon-modal-email" viewBox="0 0 32 32">
            <path d="M26.667 5.333H5.334A2.662 2.662 0 002.682 8l-.014 16c0 1.467 1.2 2.667 2.667 2.667h21.333c1.467 0 2.667-1.2 2.667-2.667V8c0-1.467-1.2-2.667-2.667-2.667zm-.534 5.668l-9.426 5.892a1.343 1.343 0 01-1.421-.004l.006.003L5.866 11A1.133 1.133 0 117.07 9.083l-.004-.003 8.933 5.586 8.933-5.588a1.132 1.132 0 111.204 1.916l-.005.003z"/>
        </symbol>
        <symbol id="icon-burger" viewBox="0 0 46 32">
            <path fill="none" stroke="var(--color1, #d41443)" stroke-width="2.286" d="M0 2.286h45.714M0 16h45.714M0 29.714h45.714"/>
        </symbol>
        <symbol id="icon-close" viewBox="0 0 32 32">
            <path fill="none" stroke="var(--color2, #fff)" stroke-width="2" d="M2.519 2l26.963 28M2 29.481L30 2.518"/>
        </symbol>
        <symbol id="icon-logo-svg" viewBox="0 0 32 32">
            <path fill="var(--color1, #d41442)" d="M13.44.32c0 .256-.277.32-1.28.32s-1.28.064-1.28.32c0 .213-.213.32-.64.32s-.64.107-.64.32-.213.32-.64.32-.64.107-.64.32-.213.32-.64.32-.64.107-.64.32c0 .171-.149.32-.32.32s-.32.149-.32.32-.149.32-.32.32-.32.149-.32.32c0 .213-.213.32-.64.32-.576 0-.64.064-.64.64 0 .427-.107.64-.32.64-.171 0-.32.149-.32.32s-.149.32-.32.32-.32.149-.32.32-.149.32-.32.32c-.213 0-.32.213-.32.64s-.107.64-.32.64-.32.213-.32.64-.107.64-.32.64-.32.213-.32.64-.107.64-.32.64c-.256 0-.32.32-.32 1.6s-.064 1.6-.32 1.6S0 14.443 0 16s.064 1.92.32 1.92.32.32.32 1.6.064 1.6.32 1.6c.213 0 .32.213.32.64s.107.64.32.64.32.213.32.64.107.64.32.64.32.213.32.64.107.64.32.64c.171 0 .32.149.32.32s.149.32.32.32.32.149.32.32.149.32.32.32c.213 0 .32.213.32.64 0 .576.064.64.64.64.427 0 .64.107.64.32 0 .171.149.32.32.32s.32.149.32.32.149.32.32.32.32.149.32.32c0 .213.213.32.64.32s.64.107.64.32.213.32.64.32.64.107.64.32.213.32.64.32c.576 0 .64-.064.64-.64 0-.427-.107-.64-.32-.64a.328.328 0 01-.32-.32c0-.213-.213-.32-.64-.32s-.64-.107-.64-.32c0-.171-.149-.32-.32-.32s-.32-.149-.32-.32-.149-.32-.32-.32-.32-.149-.32-.32-.149-.32-.32-.32c-.277 0-.32-.469-.32-2.88s-.043-2.88-.32-2.88c-.171 0-.32-.149-.32-.32s-.149-.32-.32-.32-.32-.149-.32-.32-.149-.32-.32-.32c-.256 0-.32-.32-.32-1.6s.064-1.6.32-1.6c.171 0 .32-.149.32-.32s.149-.32.32-.32.32-.149.32-.32.149-.32.32-.32.32-.149.32-.32-.149-.32-.32-.32-.32-.149-.32-.32.149-.32.32-.32c.256 0 .32-.32.32-1.6s.064-1.6.32-1.6c.213 0 .32-.213.32-.64s.107-.64.32-.64c.171 0 .32-.149.32-.32s.149-.32.32-.32.32-.149.32-.32.149-.32.32-.32.32-.149.32-.32.149-.32.32-.32.32-.149.32-.32.149-.32.32-.32.32-.149.32-.32c0-.213.213-.32.64-.32s.64-.107.64-.32.213-.32.64-.32.64-.107.64-.32c0-.277.469-.32 2.88-.32s2.88.043 2.88.32c0 .213.213.32.64.32s.64.107.64.32.213.32.64.32.64.107.64.32c0 .171.149.32.32.32s.32.149.32.32.149.32.32.32.32.149.32.32.149.32.32.32.32.149.32.32.149.32.32.32.32.149.32.32.149.32.32.32c.213 0 .32.213.32.64s.107.64.32.64c.256 0 .32.32.32 1.6s.064 1.6.32 1.6c.171 0 .32.149.32.32s-.149.32-.32.32-.32.149-.32.32.149.32.32.32.32.149.32.32.149.32.32.32.32.149.32.32.149.32.32.32c.256 0 .32.32.32 1.6s-.064 1.6-.32 1.6c-.171 0-.32.149-.32.32s-.149.32-.32.32-.32.149-.32.32-.149.32-.32.32c-.277 0-.32.469-.32 2.88s-.043 2.88-.32 2.88c-.171 0-.32.149-.32.32s-.149.32-.32.32-.32.149-.32.32-.149.32-.32.32-.32.149-.32.32c0 .213-.213.32-.64.32s-.64.107-.64.32c0 .171-.149.32-.32.32-.213 0-.32.213-.32.64 0 .576.064.64.64.64.427 0 .64-.107.64-.32s.213-.32.64-.32.64-.107.64-.32c0-.171.149-.32.32-.32s.32-.149.32-.32c0-.213.213-.32.64-.32s.64-.107.64-.32c0-.171.149-.32.32-.32s.32-.149.32-.32.149-.32.32-.32.32-.149.32-.32.149-.32.32-.32.32-.149.32-.32.149-.32.32-.32c.213 0 .32-.213.32-.64s.107-.64.32-.64c.171 0 .32-.149.32-.32s.149-.32.32-.32c.213 0 .32-.213.32-.64s.107-.64.32-.64c.235 0 .32-.256.32-.96s.085-.96.32-.96.32-.256.32-.96.085-.96.32-.96c.277 0 .32-.491.32-3.2s-.043-3.2-.32-3.2c-.235 0-.32-.256-.32-.96s-.085-.96-.32-.96-.32-.256-.32-.96-.085-.96-.32-.96c-.213 0-.32-.213-.32-.64s-.107-.64-.32-.64c-.171 0-.32-.149-.32-.32s-.149-.32-.32-.32c-.213 0-.32-.213-.32-.64s-.107-.64-.32-.64c-.171 0-.32-.149-.32-.32s-.149-.32-.32-.32-.32-.149-.32-.32-.149-.32-.32-.32-.32-.149-.32-.32-.149-.32-.32-.32-.32-.149-.32-.32c0-.213-.213-.32-.64-.32s-.64-.107-.64-.32c0-.171-.149-.32-.32-.32s-.32-.149-.32-.32c0-.213-.213-.32-.64-.32s-.64-.107-.64-.32c0-.235-.256-.32-.96-.32s-.96-.085-.96-.32c0-.256-.277-.32-1.28-.32S18.56.576 18.56.32C18.56.043 18.133 0 16 0s-2.56.043-2.56.32z"/>
            <path fill="var(--color1, #d41442)" d="M14.72 7.36c0 .235-.256.32-.96.32s-.96.085-.96.32c0 .213-.213.32-.64.32s-.64.107-.64.32c0 .171-.149.32-.32.32-.213 0-.32.213-.32.64 0 .576.064.64.64.64.427 0 .64.107.64.32 0 .235.256.32.96.32s.96.085.96.32c0 .256.384.32 2.24.32s2.24-.064 2.24-.32c0-.235.256-.32.96-.32s.96-.085.96-.32c0-.213.213-.32.64-.32.576 0 .64-.064.64-.64 0-.427-.107-.64-.32-.64a.328.328 0 01-.32-.32c0-.213-.213-.32-.64-.32s-.64-.107-.64-.32c0-.235-.256-.32-.96-.32s-.96-.085-.96-.32c0-.256-.32-.32-1.6-.32s-1.6.064-1.6.32zM9.6 11.84c0 .171-.149.32-.32.32-.256 0-.32.32-.32 1.6v1.6h14.72v-1.6c0-1.28-.064-1.6-.32-1.6-.171 0-.32-.149-.32-.32s-.149-.32-.32-.32-.32.149-.32.32c0 .213-.213.32-.64.32s-.64.107-.64.32-.213.32-.64.32-.64.107-.64.32c0 .277-.533.32-3.52.32s-3.52-.043-3.52-.32c0-.213-.213-.32-.64-.32s-.64-.107-.64-.32-.213-.32-.64-.32-.64-.107-.64-.32c0-.171-.149-.32-.32-.32s-.32.149-.32.32zM7.68 17.6c0 .171-.149.32-.32.32s-.32.149-.32.32.149.32.32.32.32.149.32.32c0 .277.747.32 5.44.32h5.44v4.48h1.28V19.2h2.56c2.133 0 2.56-.064 2.56-.32 0-.171.149-.32.32-.32s.32-.149.32-.32-.149-.32-.32-.32-.32-.149-.32-.32c0-.277-1.109-.32-8.64-.32s-8.64.043-8.64.32z"/>
            <path fill="var(--color1, #d41442)" d="M8.96 23.36c0 1.856.064 2.24.32 2.24.213 0 .32.213.32.64 0 .576.064.64.64.64.427 0 .64.107.64.32 0 .277.747.32 5.44.32s5.44-.043 5.44-.32c0-.213.213-.32.64-.32.576 0 .64-.064.64-.64 0-.427.107-.64.32-.64.256 0 .32-.384.32-2.24v-2.24h-1.92v1.6c0 1.28-.064 1.6-.32 1.6-.171 0-.32.149-.32.32s-.149.32-.32.32-.32.149-.32.32c0 .256-.277.32-1.28.32s-1.28-.064-1.28-.32c0-.213-.213-.32-.64-.32-.576 0-.64-.064-.64-.64 0-.427-.107-.64-.32-.64-.256 0-.32-.277-.32-1.28v-1.28H8.96v2.24zm3.84 7.04c0 .704.085.96.32.96.171 0 .32.149.32.32 0 .256.427.32 2.56.32s2.56-.064 2.56-.32c0-.213.213-.32.64-.32.619 0 .64-.043.64-.96v-.96H12.8v.96z"/>
        </symbol>
        <symbol id="icon-more" viewBox="0 0 26 32">
            <path fill="none" stroke="#d41443" stroke-width="6.4" d="M3.542 3.2L20.368 16 3.542 28.8"/>
        </symbol>
        <symbol id="icon-arrow-right" viewBox="0 0 32 32">
            <path d="M19.414 27.414l10-10c.362-.362.586-.862.586-1.414s-.224-1.052-.586-1.414l-10-10a2 2 0 00-2.828 2.828L23.172 14H4a2 2 0 100 4h19.172l-6.586 6.586c-.363.361-.588.861-.588 1.414s.225 1.053.588 1.414c.362.362.862.586 1.414.586s1.052-.224 1.414-.586z"/>
        </symbol>
        <symbol id="icon-circle" viewBox="0 0 32 32">
            <path fill="var(--color1, #ffa5ba)" d="M32 16c0 8.837-7.163 16-16 16S0 24.837 0 16 7.163 0 16 0s16 7.163 16 16z"/>
        </symbol>
    </defs>
</svg>